#!OML:ASF H:\BreakDance\Project 1\Capture day 1\Session 1\Male.ASF
:FULLY-SPECIFIED
:DEGREES
2333
root -15.3708 15.3363 5.49813 1048.3 -63.3851 -311.065
lowerback 7.6802 -0.455439 10.3831
upperback 6.82713 -0.564265 6.24027
thorax 2.88416 -0.178972 0.745362
lowerneck -5.24193 1.68482 0.388
upperneck -22.6221 -0.308012 -10.3206
head -5.9695 0.0713512 -3.33021
rclavicle -2.54444e-014 8.26944e-014
rhumerus -44.1053 5.18561 -86.9046
rradius 125.869
rwrist -6.06073
rhand -15.9786 13.0394
rfingers 7.12502
rthumb 10.2208 -16.6923
lclavicle -2.54444e-014 8.26944e-014
lhumerus -37.8536 -36.2207 94.2963
lradius 114.677
lwrist -7.68306
lhand -23.6756 -54.5244
lfingers 7.12502
lthumb 2.7907 -24.5629
rfemur -42.3051 -3.78154 -24.3197
rtibia 44.5483
rfoot -9.52721 -5.38409
rtoes -41.2942
lfemur -36.0543 14.8075 -23.586
ltibia 51.0394
lfoot -13.845 10.36
ltoes -43.2162
2334
root -15.3046 15.4645 5.43454 1049.16 -64.3564 -311.704
lowerback 7.70036 -0.464842 9.15473
upperback 6.79587 -0.613884 6.10747
thorax 2.81759 -0.244588 1.27782
lowerneck -5.23191 1.55767 0.571361
upperneck -22.5841 -0.211746 -8.89332
head -5.96167 0.0227511 -2.90114
rclavicle 4.13472e-014 1.59028e-014
rhumerus -41.972 6.64195 -85.3616
rradius 126.561
rwrist -4.82183
rhand -17.2473 13.1289
rfingers 7.12502
rthumb 8.99673 -16.6593
lclavicle 4.13472e-014 1.59028e-014
lhumerus -35.5924 -36.4669 90.6848
lradius 114.808
lwrist -7.62879
lhand -22.7045 -53.3376
lfingers 7.12502
lthumb 3.72842 -23.3905
rfemur -43.5503 -4.56016 -21.6076
rtibia 46.585
rfoot -10.2549 -3.70923
rtoes -41.7185
lfemur -37.4977 13.5938 -22.8914
ltibia 51.9319
lfoot -12.4924 11.5792
ltoes -42.213
2335
root -15.2307 15.5769 5.3634 1050.08 -65.1642 -312.544
lowerback 7.79788 -0.469321 7.87265
upperback 6.74761 -0.644693 5.90457
thorax 2.69463 -0.300492 1.77044
lowerneck -5.27593 1.37706 0.706349
upperneck -22.3327 -0.148158 -7.35554
head -5.87964 -0.0455624 -2.42671
rclavicle 2.54444e-014 6.36111e-014
rhumerus -39.3934 7.99571 -83.4219
rradius 127.039
rwrist -3.90302
rhand -18.7965 12.9945
rfingers 7.12502
rthumb 7.50159 -16.8525
lclavicle 2.54444e-014 6.36111e-014
lhumerus -32.8717 -36.7826 86.6146
lradius 114.777
lwrist -7.6731
lhand -22.2791 -52.4968
lfingers 7.12502
lthumb 4.13929 -22.5572
rfemur -44.6848 -5.46447 -18.7726
rtibia 49.2774
rfoot -11.0904 -1.90493
rtoes -41.9985
lfemur -39.0912 12.5402 -22.3391
ltibia 53.1448
lfoot -11.5604 12.3905
ltoes -40.6925
2336
root -15.1517 15.672 5.28777 1051.06 -65.8009 -313.596
lowerback 7.95768 -0.450752 6.63953
upperback 6.73445 -0.640799 5.61042
thorax 2.57897 -0.332748 2.14415
lowerneck -5.47367 1.12128 0.794968
upperneck -21.87 -0.162036 -5.71881
head -5.70862 -0.154507 -1.91192
rclavicle -7.95139e-015 -3.18055e-015
rhumerus -36.3668 9.11785 -81.1343
rradius 127.29
rwrist -3.54166
rhand -20.4138 12.6711
rfingers 7.12502
rthumb 5.94033 -17.2256
lclavicle -7.95139e-015 -3.18055e-015
lhumerus -29.4726 -37.2046 82.0239
lradius 114.506
lwrist -7.66596
lhand -22.353 -51.8883
lfingers 7.12502
lthumb 4.06788 -21.9474
rfemur -45.6091 -6.43839 -15.8719
rtibia 52.4969
rfoot -11.9224 -0.0672559
rtoes -41.7785
lfemur -40.7502 11.6755 -21.9822
ltibia 54.6049
lfoot -11.0496 12.6631
ltoes -38.808
2337
root -15.0695 15.7509 5.21067 1052.14 -66.2577 -314.984
lowerback 8.20014 -0.425591 5.53462
upperback 6.74535 -0.621127 5.25378
thorax 2.44616 -0.350425 2.38536
lowerneck -5.63511 0.782674 0.821451
upperneck -21.2797 -0.279822 -4.00234
head -5.50533 -0.305967 -1.36345
rclavicle -2.06736e-014 -2.8625e-014
rhumerus -33.0706 9.9748 -78.5562
rradius 127.332
rwrist -3.7377
rhand -21.941 12.2248
rfingers 7.12502
rthumb 4.46569 -17.7081
lclavicle -2.06736e-014 -2.8625e-014
lhumerus -25.3689 -37.6589 77.0156
lradius 113.938
lwrist -7.38742
lhand -22.6531 -51.4074
lfingers 7.12502
lthumb 3.77808 -21.4612
rfemur -46.1751 -7.46106 -12.9059
rtibia 56.0662
rfoot -12.7136 1.759
rtoes -41.0111
lfemur -42.363 10.9744 -21.8083
ltibia 56.2311
lfoot -10.9091 12.3271
ltoes -36.6706
2338
root -14.9839 15.8145 5.13401 1053.22 -66.6259 -316.558
lowerback 8.50962 -0.349478 4.54326
upperback 6.77224 -0.531921 4.8566
thorax 2.29465 -0.328367 2.52016
lowerneck -5.69767 0.34037 0.74173
upperneck -20.6193 -0.53771 -2.21005
head -5.29507 -0.513175 -0.7757
rclavicle -3.33958e-014 -4.77083e-014
rhumerus -29.5741 10.5773 -75.7111
rradius 127.126
rwrist -4.36157
rhand -23.4044 11.6915
rfingers 7.12502
rthumb 3.05253 -18.2664
lclavicle -3.33958e-014 -4.77083e-014
lhumerus -20.484 -38.0761 71.6939
lradius 112.974
lwrist -6.86294
lhand -23.0965 -50.933
lfingers 7.12502
lthumb 3.34991 -20.9796
rfemur -46.4409 -8.54533 -9.86209
rtibia 59.8354
rfoot -13.4803 3.49735
rtoes -40.2769
lfemur -43.9342 10.5086 -21.8628
ltibia 57.9569
lfoot -11.0471 11.4573
ltoes -35.3873
2339
root -14.8963 15.8629 5.05968 1054.31 -66.9329 -318.302
lowerback 8.87092 -0.21656 3.68957
upperback 6.82326 -0.368281 4.44068
thorax 2.13964 -0.264219 2.55545
lowerneck -5.64148 -0.18424 0.590271
upperneck -19.9269 -0.925001 -0.438452
head -5.08739 -0.769702 -0.185477
rclavicle -2.06736e-014 -2.54444e-014
rhumerus -25.9171 10.9356 -72.6295
rradius 126.603
rwrist -5.09623
rhand -24.9408 11.1405
rfingers 7.12502
rthumb 1.56872 -18.8335
lclavicle -2.06736e-014 -2.54444e-014
lhumerus -14.7928 -38.3807 66.1941
lradius 111.523
lwrist -6.2553
lhand -23.6545 -50.387
lfingers 7.12502
lthumb 2.81104 -20.4257
rfemur -46.3794 -9.69192 -6.7637
rtibia 63.6545
rfoot -14.234 5.21621
rtoes -39.2981
lfemur -45.4343 10.2574 -22.1489
ltibia 59.7321
lfoot -11.3576 10.1992
ltoes -34.7877
2340
root -14.8079 15.8967 4.98919 1055.4 -67.2425 -320.183
lowerback 9.25683 -0.0195996 2.99759
upperback 6.88739 -0.119707 4.01771
thorax 1.98346 -0.152356 2.48678
lowerneck -5.45261 -0.778674 0.346855
upperneck -19.2118 -1.42345 1.31812
head -4.88291 -1.06759 0.412517
rclavicle 6.20208e-014 -3.18055e-014
rhumerus -22.1333 11.0719 -69.3812
rradius 125.683
rwrist -5.64238
rhand -26.4929 10.5671
rfingers 7.12502
rthumb 0.0696968 -19.4127
lclavicle 6.20208e-014 -3.18055e-014
lhumerus -8.38286 -38.5092 60.6922
lradius 109.523
lwrist -5.73498
lhand -24.1652 -49.6309
lfingers 7.12502
lthumb 2.3178 -19.6638
rfemur -46.0665 -10.9059 -3.58441
rtibia 67.3909
rfoot -14.9131 6.80795
rtoes -38.3543
lfemur -46.8582 10.2086 -22.6408
ltibia 61.5044
lfoot -11.7391 8.70729
ltoes -34.9623
2341
root -14.7191 15.9132 4.92278 1056.54 -67.5881 -322.193
lowerback 9.6241 0.231299 2.49426
upperback 6.95766 0.202756 3.58362
thorax 1.84343 0.00284129 2.29349
lowerneck -5.36132 -1.41303 0.0757106
upperneck -17.9011 -2.0303 2.92167
head -5.01317 -1.38878 1.06606
rclavicle -2.38542e-014 -2.22639e-014
rhumerus -18.232 11.0472 -66.0867
rradius 124.288
rwrist -5.83544
rhand -28.0522 9.86964
rfingers 7.12502
rthumb -1.43635 -20.1053
lclavicle -2.38542e-014 -2.22639e-014
lhumerus -1.39624 -38.4365 55.3549
lradius 106.948
lwrist -5.39953
lhand -24.4692 -48.667
lfingers 7.12502
lthumb 2.02424 -18.6968
rfemur -45.4784 -12.1986 -0.337884
rtibia 70.9674
rfoot -15.5969 8.16358
rtoes -37.7479
lfemur -48.217 10.3087 -23.2933
ltibia 63.2335
lfoot -12.1141 7.07447
ltoes -35.9914
2342
root -14.631 15.9134 4.86115 1057.68 -67.954 -324.28
lowerback 9.98506 0.510547 2.17893
upperback 7.01033 0.570819 3.12399
thorax 1.69116 0.187674 1.96194
lowerneck -4.90372 -2.0628 -0.275448
upperneck -17.1452 -2.66339 4.52742
head -4.77834 -1.72442 1.68381
rclavicle 1.11319e-014 6.36111e-015
rhumerus -14.2159 10.9123 -62.8451
rradius 122.341
rwrist -5.62238
rhand -29.4782 9.01369
rfingers 7.12502
rthumb -2.81359 -20.9475
lclavicle 1.11319e-014 6.36111e-015
lhumerus 5.9396 -38.1963 50.3686
lradius 103.81
lwrist -5.31178
lhand -24.3683 -47.4797
lfingers 7.12502
lthumb 2.12169 -17.5105
rfemur -44.632 -13.6047 2.93395
rtibia 74.2873
rfoot -16.2836 9.22485
rtoes -37.7747
lfemur -49.4595 10.4585 -24.0945
ltibia 64.8433
lfoot -12.4007 5.34088
ltoes -36.9429
2343
root -14.5442 15.8979 4.80512 1058.79 -68.3142 -326.362
lowerback 10.3304 0.788099 2.04714
upperback 7.02638 0.948104 2.61067
thorax 1.51688 0.384615 1.46793
lowerneck -4.37294 -2.7005 -0.690861
upperneck -16.2795 -3.3049 6.1078
head -4.50851 -2.05683 2.29975
rclavicle 4.6118e-014 3.18055e-014
rhumerus -10.0843 10.744 -59.7727
rradius 119.805
rwrist -5.14997
rhand -30.6605 8.03569
rfingers 7.12502
rthumb -3.95534 -21.9073
lclavicle 4.6118e-014 3.18055e-014
lhumerus 13.3809 -37.8708 45.8653
lradius 100.167
lwrist -5.54245
lhand -23.8581 -46.113
lfingers 7.12502
lthumb 2.61441 -16.1493
rfemur -43.489 -15.1285 6.13335
rtibia 77.268
rfoot -17.0054 10.137
rtoes -38.283
lfemur -50.5521 10.5563 -25.0313
ltibia 66.2595
lfoot -12.5017 3.4531
ltoes -37.6939
